<?xml version="1.0" encoding="UTF-8" standalone="no"?>
<!DOCTYPE svg PUBLIC "-//W3C//DTD SVG 1.1//EN"
 "http://www.w3.org/Graphics/SVG/1.1/DTD/svg11.dtd">
<!-- Generated by graphviz version 2.38.0 (20140413.2041)
 -->
<!-- Title: tdsdump_col Pages: 1 -->
<svg width="256pt" height="66pt"
 viewBox="0.00 0.00 256.00 66.00" xmlns="http://www.w3.org/2000/svg" xmlns:xlink="http://www.w3.org/1999/xlink">
<g id="graph0" class="graph" transform="scale(1 1) rotate(0) translate(4 62)">
<title>tdsdump_col</title>
<polygon fill="white" stroke="none" points="-4,4 -4,-62 252,-62 252,4 -4,4"/>
<!-- Node54 -->
<g id="node1" class="node"><title>Node54</title>
<polygon fill="#bfbfbf" stroke="black" points="0,-19.5 0,-38.5 76,-38.5 76,-19.5 0,-19.5"/>
<text text-anchor="middle" x="38" y="-26.5" font-family="Helvetica,sans-Serif" font-size="10.00">tdsdump_col</text>
</g>
<!-- Node55 -->
<g id="node2" class="node"><title>Node55</title>
<g id="a_node2"><a xlink:href="a00536.html#ga0cf7e719115b0ae476753442d10505ab" target="_top" xlink:title="Returns string representation of the given type. ">
<polygon fill="white" stroke="black" points="146.5,-38.5 146.5,-57.5 213.5,-57.5 213.5,-38.5 146.5,-38.5"/>
<text text-anchor="middle" x="180" y="-45.5" font-family="Helvetica,sans-Serif" font-size="10.00">tds_prtype</text>
</a>
</g>
</g>
<!-- Node54&#45;&gt;Node55 -->
<g id="edge1" class="edge"><title>Node54&#45;&gt;Node55</title>
<path fill="none" stroke="midnightblue" d="M76.1499,-34.0418C94.6898,-36.5579 117.206,-39.6136 136.439,-42.2238"/>
<polygon fill="midnightblue" stroke="midnightblue" points="136.068,-45.7055 146.448,-43.5822 137.01,-38.7691 136.068,-45.7055"/>
</g>
<!-- Node56 -->
<g id="node3" class="node"><title>Node56</title>
<g id="a_node3"><a xlink:href="a00434.html#a0383d5dcb629582266a442f0f0dbd13a" target="_top" xlink:title="Return type suitable for conversions (convert all nullable types to fixed type) ">
<polygon fill="white" stroke="black" points="112,-0.5 112,-19.5 248,-19.5 248,-0.5 112,-0.5"/>
<text text-anchor="middle" x="180" y="-7.5" font-family="Helvetica,sans-Serif" font-size="10.00">tds_get_conversion_type</text>
</a>
</g>
</g>
<!-- Node54&#45;&gt;Node56 -->
<g id="edge2" class="edge"><title>Node54&#45;&gt;Node56</title>
<path fill="none" stroke="midnightblue" d="M76.1499,-23.9582C84.1544,-22.8719 92.9001,-21.685 101.803,-20.4768"/>
<polygon fill="midnightblue" stroke="midnightblue" points="102.451,-23.9209 111.89,-19.1078 101.51,-16.9845 102.451,-23.9209"/>
</g>
</g>
</svg>
