<?xml version="1.0" encoding="UTF-8" standalone="no"?>
<!DOCTYPE svg PUBLIC "-//W3C//DTD SVG 1.1//EN"
 "http://www.w3.org/Graphics/SVG/1.1/DTD/svg11.dtd">
<!-- Generated by graphviz version 2.38.0 (20140413.2041)
 -->
<!-- Title: dbopen Pages: 1 -->
<svg width="284pt" height="66pt"
 viewBox="0.00 0.00 284.00 66.00" xmlns="http://www.w3.org/2000/svg" xmlns:xlink="http://www.w3.org/1999/xlink">
<g id="graph0" class="graph" transform="scale(1 1) rotate(0) translate(4 62)">
<title>dbopen</title>
<polygon fill="white" stroke="none" points="-4,4 -4,-62 280,-62 280,4 -4,4"/>
<!-- Node3 -->
<g id="node1" class="node"><title>Node3</title>
<polygon fill="#bfbfbf" stroke="black" points="0,-19.5 0,-38.5 52,-38.5 52,-19.5 0,-19.5"/>
<text text-anchor="middle" x="26" y="-26.5" font-family="Helvetica,sans-Serif" font-size="10.00">dbopen</text>
</g>
<!-- Node4 -->
<g id="node2" class="node"><title>Node4</title>
<g id="a_node2"><a xlink:href="a00524.html#ga2c99ec565452279e9a382451d89642eb" target="_top" xlink:title="Form a connection with the server. ">
<polygon fill="white" stroke="black" points="88,-19.5 88,-38.5 154,-38.5 154,-19.5 88,-19.5"/>
<text text-anchor="middle" x="121" y="-26.5" font-family="Helvetica,sans-Serif" font-size="10.00">tdsdbopen</text>
</a>
</g>
</g>
<!-- Node3&#45;&gt;Node4 -->
<g id="edge1" class="edge"><title>Node3&#45;&gt;Node4</title>
<path fill="none" stroke="midnightblue" d="M52.4127,-29C60.2982,-29 69.2102,-29 77.9141,-29"/>
<polygon fill="midnightblue" stroke="midnightblue" points="77.9622,-32.5001 87.9621,-29 77.9621,-25.5001 77.9622,-32.5001"/>
</g>
<!-- Node5 -->
<g id="node3" class="node"><title>Node5</title>
<g id="a_node3"><a xlink:href="a00434.html#a24471508ddfde7cc0f8577801e70c42f" target="_top" xlink:title="Create and truncate a human readable dump file for the TDS traffic. ">
<polygon fill="white" stroke="black" points="190,-38.5 190,-57.5 276,-57.5 276,-38.5 190,-38.5"/>
<text text-anchor="middle" x="233" y="-45.5" font-family="Helvetica,sans-Serif" font-size="10.00">tdsdump_open</text>
</a>
</g>
</g>
<!-- Node4&#45;&gt;Node5 -->
<g id="edge2" class="edge"><title>Node4&#45;&gt;Node5</title>
<path fill="none" stroke="midnightblue" d="M154.112,-34.5467C162.221,-35.9473 171.138,-37.4875 179.954,-39.0102"/>
<polygon fill="midnightblue" stroke="midnightblue" points="179.365,-42.4603 189.815,-40.7135 180.557,-35.5625 179.365,-42.4603"/>
</g>
<!-- Node6 -->
<g id="node4" class="node"><title>Node6</title>
<g id="a_node4"><a xlink:href="a00434.html#ab45c291105027e69836002e1dd586141" target="_top" xlink:title="Write a message to the debug log. ">
<polygon fill="white" stroke="black" points="194.5,-0.5 194.5,-19.5 271.5,-19.5 271.5,-0.5 194.5,-0.5"/>
<text text-anchor="middle" x="233" y="-7.5" font-family="Helvetica,sans-Serif" font-size="10.00">tdsdump_log</text>
</a>
</g>
</g>
<!-- Node4&#45;&gt;Node6 -->
<g id="edge3" class="edge"><title>Node4&#45;&gt;Node6</title>
<path fill="none" stroke="midnightblue" d="M154.112,-23.4533C163.529,-21.8268 174.036,-20.012 184.208,-18.255"/>
<polygon fill="midnightblue" stroke="midnightblue" points="184.957,-21.6775 194.215,-16.5265 183.765,-14.7797 184.957,-21.6775"/>
</g>
</g>
</svg>
