<?xml version="1.0" encoding="UTF-8" standalone="no"?>
<!DOCTYPE svg PUBLIC "-//W3C//DTD SVG 1.1//EN"
 "http://www.w3.org/Graphics/SVG/1.1/DTD/svg11.dtd">
<!-- Generated by graphviz version 2.38.0 (20140413.2041)
 -->
<!-- Title: tds_set_state Pages: 1 -->
<svg width="418pt" height="142pt"
 viewBox="0.00 0.00 418.00 142.00" xmlns="http://www.w3.org/2000/svg" xmlns:xlink="http://www.w3.org/1999/xlink">
<g id="graph0" class="graph" transform="scale(1 1) rotate(0) translate(4 138)">
<title>tds_set_state</title>
<polygon fill="white" stroke="none" points="-4,4 -4,-138 414,-138 414,4 -4,4"/>
<!-- Node35 -->
<g id="node1" class="node"><title>Node35</title>
<polygon fill="#bfbfbf" stroke="black" points="0,-57.5 0,-76.5 80,-76.5 80,-57.5 0,-57.5"/>
<text text-anchor="middle" x="40" y="-64.5" font-family="Helvetica,sans-Serif" font-size="10.00">tds_set_state</text>
</g>
<!-- Node36 -->
<g id="node2" class="node"><title>Node36</title>
<g id="a_node2"><a xlink:href="a00533.html#gada27f4cfce925240ad33b71b63ca692d" target="_top" xlink:title="Flush query packet. ">
<polygon fill="white" stroke="black" points="116,-114.5 116,-133.5 244,-133.5 244,-114.5 116,-114.5"/>
<text text-anchor="middle" x="180" y="-121.5" font-family="Helvetica,sans-Serif" font-size="10.00">tds_query_flush_packet</text>
</a>
</g>
</g>
<!-- Node35&#45;&gt;Node36 -->
<g id="edge1" class="edge"><title>Node35&#45;&gt;Node36</title>
<path fill="none" stroke="midnightblue" d="M67.0277,-81.6152C81.2221,-89.2183 99.2653,-98.2977 116,-105 124.696,-108.483 134.285,-111.684 143.303,-114.426"/>
<polygon fill="midnightblue" stroke="midnightblue" points="68.3353,-78.3421 57.879,-76.6347 64.9884,-84.4901 68.3353,-78.3421"/>
</g>
<!-- Node38 -->
<g id="node4" class="node"><title>Node38</title>
<g id="a_node4"><a xlink:href="a00533.html#ga5f071b94ad7889690762dc85646c74ab" target="_top" xlink:title="tds_submit_rpc() call a RPC from server. ">
<polygon fill="white" stroke="black" points="136.5,-76.5 136.5,-95.5 223.5,-95.5 223.5,-76.5 136.5,-76.5"/>
<text text-anchor="middle" x="180" y="-83.5" font-family="Helvetica,sans-Serif" font-size="10.00">tds_submit_rpc</text>
</a>
</g>
</g>
<!-- Node35&#45;&gt;Node38 -->
<g id="edge3" class="edge"><title>Node35&#45;&gt;Node38</title>
<path fill="none" stroke="midnightblue" d="M90.3333,-73.7923C105.376,-75.8633 121.778,-78.1217 136.34,-80.1265"/>
<polygon fill="midnightblue" stroke="midnightblue" points="90.5601,-70.2906 80.1761,-72.3938 89.6053,-77.2251 90.5601,-70.2906"/>
</g>
<!-- Node39 -->
<g id="node5" class="node"><title>Node39</title>
<g id="a_node5"><a xlink:href="a00434.html#ab68dead99a2ebec55895a10cd3db5202" target="_top" xlink:title="Send some data in the writetext request started by tds_writetext_start. ">
<polygon fill="white" stroke="black" points="119,-38.5 119,-57.5 241,-57.5 241,-38.5 119,-38.5"/>
<text text-anchor="middle" x="180" y="-45.5" font-family="Helvetica,sans-Serif" font-size="10.00">tds_writetext_continue</text>
</a>
</g>
</g>
<!-- Node35&#45;&gt;Node39 -->
<g id="edge4" class="edge"><title>Node35&#45;&gt;Node39</title>
<path fill="none" stroke="midnightblue" d="M90.3431,-60.2064C99.5759,-58.9352 109.321,-57.5935 118.838,-56.2832"/>
<polygon fill="midnightblue" stroke="midnightblue" points="89.6053,-56.7749 80.1761,-61.6062 90.5601,-63.7094 89.6053,-56.7749"/>
</g>
<!-- Node40 -->
<g id="node6" class="node"><title>Node40</title>
<g id="a_node6"><a xlink:href="a00434.html#ac1e460551f1188620ea478238864ac4b" target="_top" xlink:title="Finish sending writetext data. ">
<polygon fill="white" stroke="black" points="129.5,-0.5 129.5,-19.5 230.5,-19.5 230.5,-0.5 129.5,-0.5"/>
<text text-anchor="middle" x="180" y="-7.5" font-family="Helvetica,sans-Serif" font-size="10.00">tds_writetext_end</text>
</a>
</g>
</g>
<!-- Node35&#45;&gt;Node40 -->
<g id="edge5" class="edge"><title>Node35&#45;&gt;Node40</title>
<path fill="none" stroke="midnightblue" d="M67.0277,-52.3848C81.2221,-44.7817 99.2653,-35.7023 116,-29 124.696,-25.5171 134.285,-22.3161 143.303,-19.5736"/>
<polygon fill="midnightblue" stroke="midnightblue" points="64.9884,-49.5099 57.879,-57.3653 68.3353,-55.6579 64.9884,-49.5099"/>
</g>
<!-- Node37 -->
<g id="node3" class="node"><title>Node37</title>
<g id="a_node3"><a xlink:href="a00533.html#gaf614c75ea8f7ad411e53dac0e2f91be4" target="_top" xlink:title="Send RPC as string query. ">
<polygon fill="white" stroke="black" points="280,-114.5 280,-133.5 410,-133.5 410,-114.5 280,-114.5"/>
<text text-anchor="middle" x="345" y="-121.5" font-family="Helvetica,sans-Serif" font-size="10.00">tds_send_emulated_rpc</text>
</a>
</g>
</g>
<!-- Node36&#45;&gt;Node37 -->
<g id="edge2" class="edge"><title>Node36&#45;&gt;Node37</title>
<path fill="none" stroke="midnightblue" d="M254.027,-124C262.621,-124 271.342,-124 279.802,-124"/>
<polygon fill="midnightblue" stroke="midnightblue" points="254.02,-120.5 244.02,-124 254.02,-127.5 254.02,-120.5"/>
</g>
</g>
</svg>
