<?xml version="1.0" encoding="UTF-8" standalone="no"?>
<!DOCTYPE svg PUBLIC "-//W3C//DTD SVG 1.1//EN"
 "http://www.w3.org/Graphics/SVG/1.1/DTD/svg11.dtd">
<!-- Generated by graphviz version 2.38.0 (20140413.2041)
 -->
<!-- Title: tds_skip_quoted_ucs2le Pages: 1 -->
<svg width="458pt" height="39pt"
 viewBox="0.00 0.00 458.00 39.00" xmlns="http://www.w3.org/2000/svg" xmlns:xlink="http://www.w3.org/1999/xlink">
<g id="graph0" class="graph" transform="scale(1 1) rotate(0) translate(4 35)">
<title>tds_skip_quoted_ucs2le</title>
<polygon fill="white" stroke="none" points="-4,4 -4,-35 454,-35 454,4 -4,4"/>
<!-- Node119 -->
<g id="node1" class="node"><title>Node119</title>
<polygon fill="#bfbfbf" stroke="black" points="0,-6 0,-25 130,-25 130,-6 0,-6"/>
<text text-anchor="middle" x="65" y="-13" font-family="Helvetica,sans-Serif" font-size="10.00">tds_skip_quoted_ucs2le</text>
</g>
<!-- Node120 -->
<g id="node2" class="node"><title>Node120</title>
<g id="a_node2"><a xlink:href="a00533.html#gaa823973b74efdf1ff00f340496bff614" target="_top" xlink:title="Found the next placeholder (? or @param) in a string. ">
<polygon fill="white" stroke="black" points="166,-0.5 166,-30.5 285,-30.5 285,-0.5 166,-0.5"/>
<text text-anchor="start" x="174" y="-18.5" font-family="Helvetica,sans-Serif" font-size="10.00">tds_next_placeholder</text>
<text text-anchor="middle" x="225.5" y="-7.5" font-family="Helvetica,sans-Serif" font-size="10.00">_ucs2le</text>
</a>
</g>
</g>
<!-- Node119&#45;&gt;Node120 -->
<g id="edge1" class="edge"><title>Node119&#45;&gt;Node120</title>
<path fill="none" stroke="midnightblue" d="M140.103,-15.5C148.752,-15.5 157.484,-15.5 165.883,-15.5"/>
<polygon fill="midnightblue" stroke="midnightblue" points="140.011,-12.0001 130.011,-15.5 140.011,-19.0001 140.011,-12.0001"/>
</g>
<!-- Node121 -->
<g id="node3" class="node"><title>Node121</title>
<g id="a_node3"><a xlink:href="a00533.html#ga0cd19215e9169ea299a6c9cbf5b2fb60" target="_top" xlink:title="Count number of placeholders (?) in a query. ">
<polygon fill="white" stroke="black" points="321,-0.5 321,-30.5 450,-30.5 450,-0.5 321,-0.5"/>
<text text-anchor="start" x="329" y="-18.5" font-family="Helvetica,sans-Serif" font-size="10.00">tds_count_placeholders</text>
<text text-anchor="middle" x="385.5" y="-7.5" font-family="Helvetica,sans-Serif" font-size="10.00">_ucs2le</text>
</a>
</g>
</g>
<!-- Node120&#45;&gt;Node121 -->
<g id="edge2" class="edge"><title>Node120&#45;&gt;Node121</title>
<path fill="none" stroke="midnightblue" d="M295.506,-15.5C303.929,-15.5 312.507,-15.5 320.847,-15.5"/>
<polygon fill="midnightblue" stroke="midnightblue" points="295.333,-12.0001 285.333,-15.5 295.333,-19.0001 295.333,-12.0001"/>
</g>
</g>
</svg>
