<?xml version="1.0" encoding="UTF-8" standalone="no"?>
<!DOCTYPE svg PUBLIC "-//W3C//DTD SVG 1.1//EN"
 "http://www.w3.org/Graphics/SVG/1.1/DTD/svg11.dtd">
<!-- Generated by graphviz version 2.38.0 (20140413.2041)
 -->
<!-- Title: tds_quote Pages: 1 -->
<svg width="202pt" height="66pt"
 viewBox="0.00 0.00 202.00 66.00" xmlns="http://www.w3.org/2000/svg" xmlns:xlink="http://www.w3.org/1999/xlink">
<g id="graph0" class="graph" transform="scale(1 1) rotate(0) translate(4 62)">
<title>tds_quote</title>
<polygon fill="white" stroke="none" points="-4,4 -4,-62 198,-62 198,4 -4,4"/>
<!-- Node74 -->
<g id="node1" class="node"><title>Node74</title>
<polygon fill="#bfbfbf" stroke="black" points="0,-19.5 0,-38.5 63,-38.5 63,-19.5 0,-19.5"/>
<text text-anchor="middle" x="31.5" y="-26.5" font-family="Helvetica,sans-Serif" font-size="10.00">tds_quote</text>
</g>
<!-- Node75 -->
<g id="node2" class="node"><title>Node75</title>
<g id="a_node2"><a xlink:href="a00533.html#ga8d8f2f1c91635ee95f30722208ae3043" target="_top" xlink:title="Quote an id. ">
<polygon fill="white" stroke="black" points="108,-38.5 108,-57.5 185,-57.5 185,-38.5 108,-38.5"/>
<text text-anchor="middle" x="146.5" y="-45.5" font-family="Helvetica,sans-Serif" font-size="10.00">tds_quote_id</text>
</a>
</g>
</g>
<!-- Node74&#45;&gt;Node75 -->
<g id="edge1" class="edge"><title>Node74&#45;&gt;Node75</title>
<path fill="none" stroke="midnightblue" d="M73.1027,-35.827C84.3599,-37.7198 96.5337,-39.7667 107.628,-41.6322"/>
<polygon fill="midnightblue" stroke="midnightblue" points="73.5214,-32.3483 63.0794,-34.1417 72.3606,-39.2514 73.5214,-32.3483"/>
</g>
<!-- Node76 -->
<g id="node3" class="node"><title>Node76</title>
<g id="a_node3"><a xlink:href="a00533.html#ga737b9fb9971fb425af5c722415ef0eac" target="_top" xlink:title="Quote a string. ">
<polygon fill="white" stroke="black" points="99,-0.5 99,-19.5 194,-19.5 194,-0.5 99,-0.5"/>
<text text-anchor="middle" x="146.5" y="-7.5" font-family="Helvetica,sans-Serif" font-size="10.00">tds_quote_string</text>
</a>
</g>
</g>
<!-- Node74&#45;&gt;Node76 -->
<g id="edge2" class="edge"><title>Node74&#45;&gt;Node76</title>
<path fill="none" stroke="midnightblue" d="M72.9649,-22.1962C81.3218,-20.791 90.189,-19.3001 98.7484,-17.8609"/>
<polygon fill="midnightblue" stroke="midnightblue" points="72.3606,-18.7486 63.0794,-23.8583 73.5214,-25.6517 72.3606,-18.7486"/>
</g>
</g>
</svg>
