<?xml version="1.0" encoding="UTF-8" standalone="no"?>
<!DOCTYPE svg PUBLIC "-//W3C//DTD SVG 1.1//EN"
 "http://www.w3.org/Graphics/SVG/1.1/DTD/svg11.dtd">
<!-- Generated by graphviz version 2.38.0 (20140413.2041)
 -->
<!-- Title: tds_get_byte Pages: 1 -->
<svg width="263pt" height="78pt"
 viewBox="0.00 0.00 263.00 77.50" xmlns="http://www.w3.org/2000/svg" xmlns:xlink="http://www.w3.org/1999/xlink">
<g id="graph0" class="graph" transform="scale(1 1) rotate(0) translate(4 73.5)">
<title>tds_get_byte</title>
<polygon fill="white" stroke="none" points="-4,4 -4,-73.5 259,-73.5 259,4 -4,4"/>
<!-- Node22 -->
<g id="node1" class="node"><title>Node22</title>
<polygon fill="#bfbfbf" stroke="black" points="0,-28 0,-47 77,-47 77,-28 0,-28"/>
<text text-anchor="middle" x="38.5" y="-35" font-family="Helvetica,sans-Serif" font-size="10.00">tds_get_byte</text>
</g>
<!-- Node23 -->
<g id="node2" class="node"><title>Node23</title>
<g id="a_node2"><a xlink:href="a00534.html#ga221e98a9c8be96ec6c8547891e1b53af" target="_top" xlink:title="Reads a byte from the TDS stream without removing it. ">
<polygon fill="white" stroke="black" points="154,-50 154,-69 214,-69 214,-50 154,-50"/>
<text text-anchor="middle" x="184" y="-57" font-family="Helvetica,sans-Serif" font-size="10.00">tds_peek</text>
</a>
</g>
</g>
<!-- Node22&#45;&gt;Node23 -->
<g id="edge1" class="edge"><title>Node22&#45;&gt;Node23</title>
<path fill="none" stroke="midnightblue" d="M87.3422,-44.8347C109.298,-48.2007 134.625,-52.0836 153.701,-55.0082"/>
<polygon fill="midnightblue" stroke="midnightblue" points="87.6179,-41.3361 77.2029,-43.2802 86.557,-48.2553 87.6179,-41.3361"/>
</g>
<!-- Node24 -->
<g id="node3" class="node"><title>Node24</title>
<g id="a_node3"><a xlink:href="a00536.html#ga9fdef8228d29cab7fa9098f07fa73fba" target="_top" xlink:title="Process parameters from networks. ">
<polygon fill="white" stroke="black" points="113,-0.5 113,-30.5 255,-30.5 255,-0.5 113,-0.5"/>
<text text-anchor="start" x="121" y="-18.5" font-family="Helvetica,sans-Serif" font-size="10.00">tds_process_param_result</text>
<text text-anchor="middle" x="184" y="-7.5" font-family="Helvetica,sans-Serif" font-size="10.00">_tokens</text>
</a>
</g>
</g>
<!-- Node22&#45;&gt;Node24 -->
<g id="edge2" class="edge"><title>Node22&#45;&gt;Node24</title>
<path fill="none" stroke="midnightblue" d="M87.2926,-30.1729C95.4867,-28.9167 104.152,-27.5882 112.787,-26.2644"/>
<polygon fill="midnightblue" stroke="midnightblue" points="86.557,-26.7447 77.2029,-31.7198 87.6179,-33.6639 86.557,-26.7447"/>
</g>
</g>
</svg>
