<?xml version="1.0" encoding="UTF-8" standalone="no"?>
<!DOCTYPE svg PUBLIC "-//W3C//DTD SVG 1.1//EN"
 "http://www.w3.org/Graphics/SVG/1.1/DTD/svg11.dtd">
<!-- Generated by graphviz version 2.38.0 (20140413.2041)
 -->
<!-- Title: tds_process_dyn_result Pages: 1 -->
<svg width="371pt" height="28pt"
 viewBox="0.00 0.00 371.00 28.00" xmlns="http://www.w3.org/2000/svg" xmlns:xlink="http://www.w3.org/1999/xlink">
<g id="graph0" class="graph" transform="scale(1 1) rotate(0) translate(4 24)">
<title>tds_process_dyn_result</title>
<polygon fill="white" stroke="none" points="-4,4 -4,-24 367,-24 367,4 -4,4"/>
<!-- Node75 -->
<g id="node1" class="node"><title>Node75</title>
<polygon fill="#bfbfbf" stroke="black" points="0,-0.5 0,-19.5 129,-19.5 129,-0.5 0,-0.5"/>
<text text-anchor="middle" x="64.5" y="-7.5" font-family="Helvetica,sans-Serif" font-size="10.00">tds_process_dyn_result</text>
</g>
<!-- Node76 -->
<g id="node2" class="node"><title>Node76</title>
<g id="a_node2"><a xlink:href="a00534.html#gad38aa5b9547817854ccba1fcc7855861" target="_top" xlink:title="Get an int16 from the server. ">
<polygon fill="white" stroke="black" points="165,-0.5 165,-19.5 263,-19.5 263,-0.5 165,-0.5"/>
<text text-anchor="middle" x="214" y="-7.5" font-family="Helvetica,sans-Serif" font-size="10.00">tds_get_usmallint</text>
</a>
</g>
</g>
<!-- Node75&#45;&gt;Node76 -->
<g id="edge1" class="edge"><title>Node75&#45;&gt;Node76</title>
<path fill="none" stroke="midnightblue" d="M129.338,-10C137.659,-10 146.152,-10 154.381,-10"/>
<polygon fill="midnightblue" stroke="midnightblue" points="154.633,-13.5001 164.633,-10 154.633,-6.5001 154.633,-13.5001"/>
</g>
<!-- Node77 -->
<g id="node3" class="node"><title>Node77</title>
<g id="a_node3"><a xlink:href="a00534.html#gae7d9c4e1a079e1d0aa0252732631e8c4" target="_top" xlink:title="Get N bytes from the buffer and return them in the already allocated space given to us...">
<polygon fill="white" stroke="black" points="299,-0.5 299,-19.5 363,-19.5 363,-0.5 299,-0.5"/>
<text text-anchor="middle" x="331" y="-7.5" font-family="Helvetica,sans-Serif" font-size="10.00">tds_get_n</text>
</a>
</g>
</g>
<!-- Node76&#45;&gt;Node77 -->
<g id="edge2" class="edge"><title>Node76&#45;&gt;Node77</title>
<path fill="none" stroke="midnightblue" d="M263.104,-10C271.586,-10 280.349,-10 288.626,-10"/>
<polygon fill="midnightblue" stroke="midnightblue" points="288.794,-13.5001 298.794,-10 288.794,-6.5001 288.794,-13.5001"/>
</g>
</g>
</svg>
