<?xml version="1.0" encoding="UTF-8" standalone="no"?>
<!DOCTYPE svg PUBLIC "-//W3C//DTD SVG 1.1//EN"
 "http://www.w3.org/Graphics/SVG/1.1/DTD/svg11.dtd">
<!-- Generated by graphviz version 2.38.0 (20140413.2041)
 -->
<!-- Title: tds_put_data_info Pages: 1 -->
<svg width="222pt" height="66pt"
 viewBox="0.00 0.00 222.00 66.00" xmlns="http://www.w3.org/2000/svg" xmlns:xlink="http://www.w3.org/1999/xlink">
<g id="graph0" class="graph" transform="scale(1 1) rotate(0) translate(4 62)">
<title>tds_put_data_info</title>
<polygon fill="white" stroke="none" points="-4,4 -4,-62 218,-62 218,4 -4,4"/>
<!-- Node57 -->
<g id="node1" class="node"><title>Node57</title>
<polygon fill="#bfbfbf" stroke="black" points="0,-19.5 0,-38.5 101,-38.5 101,-19.5 0,-19.5"/>
<text text-anchor="middle" x="50.5" y="-26.5" font-family="Helvetica,sans-Serif" font-size="10.00">tds_put_data_info</text>
</g>
<!-- Node58 -->
<g id="node2" class="node"><title>Node58</title>
<g id="a_node2"><a xlink:href="a00535.html#gaf0e232f3c35f2d8b43486e8708f7a8fc" target="_top" xlink:title="Returns the length of the string in bytes. ">
<polygon fill="white" stroke="black" points="138,-38.5 138,-57.5 213,-57.5 213,-38.5 138,-38.5"/>
<text text-anchor="middle" x="175.5" y="-45.5" font-family="Helvetica,sans-Serif" font-size="10.00">tds_dstr_len</text>
</a>
</g>
</g>
<!-- Node57&#45;&gt;Node58 -->
<g id="edge1" class="edge"><title>Node57&#45;&gt;Node58</title>
<path fill="none" stroke="midnightblue" d="M101.174,-36.6733C109.992,-38.0353 119.147,-39.4495 127.876,-40.7979"/>
<polygon fill="midnightblue" stroke="midnightblue" points="127.465,-44.2759 137.882,-42.3436 128.534,-37.3579 127.465,-44.2759"/>
</g>
<!-- Node59 -->
<g id="node3" class="node"><title>Node59</title>
<g id="a_node3"><a xlink:href="a00434.html#ab45c291105027e69836002e1dd586141" target="_top" xlink:title="Write a message to the debug log. ">
<polygon fill="white" stroke="black" points="137,-0.5 137,-19.5 214,-19.5 214,-0.5 137,-0.5"/>
<text text-anchor="middle" x="175.5" y="-7.5" font-family="Helvetica,sans-Serif" font-size="10.00">tdsdump_log</text>
</a>
</g>
</g>
<!-- Node57&#45;&gt;Node59 -->
<g id="edge2" class="edge"><title>Node57&#45;&gt;Node59</title>
<path fill="none" stroke="midnightblue" d="M101.174,-21.3267C109.612,-20.0234 118.358,-18.6724 126.744,-17.3769"/>
<polygon fill="midnightblue" stroke="midnightblue" points="127.402,-20.8168 136.751,-15.8312 126.334,-13.8989 127.402,-20.8168"/>
</g>
</g>
</svg>
