<?xml version="1.0" encoding="UTF-8" standalone="no"?>
<!DOCTYPE svg PUBLIC "-//W3C//DTD SVG 1.1//EN"
 "http://www.w3.org/Graphics/SVG/1.1/DTD/svg11.dtd">
<!-- Generated by graphviz version 2.38.0 (20140413.2041)
 -->
<!-- Title: tds_flush_packet Pages: 1 -->
<svg width="434pt" height="28pt"
 viewBox="0.00 0.00 434.00 28.00" xmlns="http://www.w3.org/2000/svg" xmlns:xlink="http://www.w3.org/1999/xlink">
<g id="graph0" class="graph" transform="scale(1 1) rotate(0) translate(4 24)">
<title>tds_flush_packet</title>
<polygon fill="white" stroke="none" points="-4,4 -4,-24 430,-24 430,4 -4,4"/>
<!-- Node17 -->
<g id="node1" class="node"><title>Node17</title>
<polygon fill="#bfbfbf" stroke="black" points="0,-0.5 0,-19.5 96,-19.5 96,-0.5 0,-0.5"/>
<text text-anchor="middle" x="48" y="-7.5" font-family="Helvetica,sans-Serif" font-size="10.00">tds_flush_packet</text>
</g>
<!-- Node18 -->
<g id="node2" class="node"><title>Node18</title>
<g id="a_node2"><a xlink:href="a00533.html#gada27f4cfce925240ad33b71b63ca692d" target="_top" xlink:title="Flush query packet. ">
<polygon fill="white" stroke="black" points="132,-0.5 132,-19.5 260,-19.5 260,-0.5 132,-0.5"/>
<text text-anchor="middle" x="196" y="-7.5" font-family="Helvetica,sans-Serif" font-size="10.00">tds_query_flush_packet</text>
</a>
</g>
</g>
<!-- Node17&#45;&gt;Node18 -->
<g id="edge1" class="edge"><title>Node17&#45;&gt;Node18</title>
<path fill="none" stroke="midnightblue" d="M106.426,-10C114.787,-10 123.433,-10 131.898,-10"/>
<polygon fill="midnightblue" stroke="midnightblue" points="106.402,-6.5001 96.402,-10 106.402,-13.5001 106.402,-6.5001"/>
</g>
<!-- Node19 -->
<g id="node3" class="node"><title>Node19</title>
<g id="a_node3"><a xlink:href="a00533.html#gaf614c75ea8f7ad411e53dac0e2f91be4" target="_top" xlink:title="Send RPC as string query. ">
<polygon fill="white" stroke="black" points="296,-0.5 296,-19.5 426,-19.5 426,-0.5 296,-0.5"/>
<text text-anchor="middle" x="361" y="-7.5" font-family="Helvetica,sans-Serif" font-size="10.00">tds_send_emulated_rpc</text>
</a>
</g>
</g>
<!-- Node18&#45;&gt;Node19 -->
<g id="edge2" class="edge"><title>Node18&#45;&gt;Node19</title>
<path fill="none" stroke="midnightblue" d="M270.027,-10C278.621,-10 287.342,-10 295.802,-10"/>
<polygon fill="midnightblue" stroke="midnightblue" points="270.02,-6.5001 260.02,-10 270.02,-13.5001 270.02,-6.5001"/>
</g>
</g>
</svg>
