<?xml version="1.0" encoding="UTF-8" standalone="no"?>
<!DOCTYPE svg PUBLIC "-//W3C//DTD SVG 1.1//EN"
 "http://www.w3.org/Graphics/SVG/1.1/DTD/svg11.dtd">
<!-- Generated by graphviz version 2.38.0 (20140413.2041)
 -->
<!-- Title: tds5_process_dyn_result2 Pages: 1 -->
<svg width="383pt" height="66pt"
 viewBox="0.00 0.00 383.00 66.00" xmlns="http://www.w3.org/2000/svg" xmlns:xlink="http://www.w3.org/1999/xlink">
<g id="graph0" class="graph" transform="scale(1 1) rotate(0) translate(4 62)">
<title>tds5_process_dyn_result2</title>
<polygon fill="white" stroke="none" points="-4,4 -4,-62 379,-62 379,4 -4,4"/>
<!-- Node4 -->
<g id="node1" class="node"><title>Node4</title>
<polygon fill="#bfbfbf" stroke="black" points="0,-19.5 0,-38.5 141,-38.5 141,-19.5 0,-19.5"/>
<text text-anchor="middle" x="70.5" y="-26.5" font-family="Helvetica,sans-Serif" font-size="10.00">tds5_process_dyn_result2</text>
</g>
<!-- Node5 -->
<g id="node2" class="node"><title>Node5</title>
<g id="a_node2"><a xlink:href="a00534.html#ga9ac121c269e203337a48c5bf8afc48c3" target="_top" xlink:title="Get an int32 from the server. ">
<polygon fill="white" stroke="black" points="189,-38.5 189,-57.5 263,-57.5 263,-38.5 189,-38.5"/>
<text text-anchor="middle" x="226" y="-45.5" font-family="Helvetica,sans-Serif" font-size="10.00">tds_get_uint</text>
</a>
</g>
</g>
<!-- Node4&#45;&gt;Node5 -->
<g id="edge1" class="edge"><title>Node4&#45;&gt;Node5</title>
<path fill="none" stroke="midnightblue" d="M141.064,-37.6105C153.825,-39.1901 166.854,-40.8028 178.722,-42.2718"/>
<polygon fill="midnightblue" stroke="midnightblue" points="178.463,-45.7663 188.817,-43.5213 179.323,-38.8193 178.463,-45.7663"/>
</g>
<!-- Node7 -->
<g id="node4" class="node"><title>Node7</title>
<g id="a_node4"><a xlink:href="a00534.html#gad38aa5b9547817854ccba1fcc7855861" target="_top" xlink:title="Get an int16 from the server. ">
<polygon fill="white" stroke="black" points="177,-0.5 177,-19.5 275,-19.5 275,-0.5 177,-0.5"/>
<text text-anchor="middle" x="226" y="-7.5" font-family="Helvetica,sans-Serif" font-size="10.00">tds_get_usmallint</text>
</a>
</g>
</g>
<!-- Node4&#45;&gt;Node7 -->
<g id="edge3" class="edge"><title>Node4&#45;&gt;Node7</title>
<path fill="none" stroke="midnightblue" d="M141.064,-20.3895C149.636,-19.3284 158.329,-18.2525 166.709,-17.2152"/>
<polygon fill="midnightblue" stroke="midnightblue" points="167.253,-20.6746 176.748,-15.9726 166.393,-13.7276 167.253,-20.6746"/>
</g>
<!-- Node6 -->
<g id="node3" class="node"><title>Node6</title>
<g id="a_node3"><a xlink:href="a00534.html#gae7d9c4e1a079e1d0aa0252732631e8c4" target="_top" xlink:title="Get N bytes from the buffer and return them in the already allocated space given to us...">
<polygon fill="white" stroke="black" points="311,-19.5 311,-38.5 375,-38.5 375,-19.5 311,-19.5"/>
<text text-anchor="middle" x="343" y="-26.5" font-family="Helvetica,sans-Serif" font-size="10.00">tds_get_n</text>
</a>
</g>
</g>
<!-- Node5&#45;&gt;Node6 -->
<g id="edge2" class="edge"><title>Node5&#45;&gt;Node6</title>
<path fill="none" stroke="midnightblue" d="M263.071,-42.0404C275.01,-40.0679 288.388,-37.8577 300.689,-35.8253"/>
<polygon fill="midnightblue" stroke="midnightblue" points="301.418,-39.2524 310.713,-34.1691 300.277,-32.3461 301.418,-39.2524"/>
</g>
<!-- Node7&#45;&gt;Node6 -->
<g id="edge4" class="edge"><title>Node7&#45;&gt;Node6</title>
<path fill="none" stroke="midnightblue" d="M275.104,-17.9476C283.68,-19.3646 292.544,-20.8289 300.902,-22.2099"/>
<polygon fill="midnightblue" stroke="midnightblue" points="300.357,-25.6673 310.794,-23.8442 301.498,-18.7609 300.357,-25.6673"/>
</g>
</g>
</svg>
