<?xml version="1.0" encoding="UTF-8" standalone="no"?>
<!DOCTYPE svg PUBLIC "-//W3C//DTD SVG 1.1//EN"
 "http://www.w3.org/Graphics/SVG/1.1/DTD/svg11.dtd">
<!-- Generated by graphviz version 2.38.0 (20140413.2041)
 -->
<!-- Title: tds_dstr_copy Pages: 1 -->
<svg width="282pt" height="104pt"
 viewBox="0.00 0.00 282.00 104.00" xmlns="http://www.w3.org/2000/svg" xmlns:xlink="http://www.w3.org/1999/xlink">
<g id="graph0" class="graph" transform="scale(1 1) rotate(0) translate(4 100)">
<title>tds_dstr_copy</title>
<polygon fill="white" stroke="none" points="-4,4 -4,-100 278,-100 278,4 -4,4"/>
<!-- Node6 -->
<g id="node1" class="node"><title>Node6</title>
<polygon fill="#bfbfbf" stroke="black" points="0,-38.5 0,-57.5 83,-57.5 83,-38.5 0,-38.5"/>
<text text-anchor="middle" x="41.5" y="-45.5" font-family="Helvetica,sans-Serif" font-size="10.00">tds_dstr_copy</text>
</g>
<!-- Node7 -->
<g id="node2" class="node"><title>Node7</title>
<g id="a_node2"><a xlink:href="a00529.html#gaa9670914093b354e7a123b10ba877813" target="_top" xlink:title="Check the server name to find port info first Warning: connection&#45;&gt; &amp; login&#45;&gt; are all modified when n...">
<polygon fill="white" stroke="black" points="119,-76.5 119,-95.5 274,-95.5 274,-76.5 119,-76.5"/>
<text text-anchor="middle" x="196.5" y="-83.5" font-family="Helvetica,sans-Serif" font-size="10.00">parse_server_name_for_port</text>
</a>
</g>
</g>
<!-- Node6&#45;&gt;Node7 -->
<g id="edge1" class="edge"><title>Node6&#45;&gt;Node7</title>
<path fill="none" stroke="midnightblue" d="M90.9768,-60.04C112.352,-65.3488 137.113,-71.4988 157.169,-76.4799"/>
<polygon fill="midnightblue" stroke="midnightblue" points="91.6572,-56.6027 81.1084,-57.589 89.9698,-63.3963 91.6572,-56.6027"/>
</g>
<!-- Node8 -->
<g id="node3" class="node"><title>Node8</title>
<g id="a_node3"><a xlink:href="a00535.html#gab78cc59b110df2817b00f9bed74c6ff1" target="_top" xlink:title="set a string from another buffer. ">
<polygon fill="white" stroke="black" points="159,-38.5 159,-57.5 234,-57.5 234,-38.5 159,-38.5"/>
<text text-anchor="middle" x="196.5" y="-45.5" font-family="Helvetica,sans-Serif" font-size="10.00">tds_dstr_set</text>
</a>
</g>
</g>
<!-- Node6&#45;&gt;Node8 -->
<g id="edge2" class="edge"><title>Node6&#45;&gt;Node8</title>
<path fill="none" stroke="midnightblue" d="M93.3477,-48C114.792,-48 139.278,-48 158.9,-48"/>
<polygon fill="midnightblue" stroke="midnightblue" points="93.0995,-44.5001 83.0995,-48 93.0995,-51.5001 93.0995,-44.5001"/>
</g>
<!-- Node9 -->
<g id="node4" class="node"><title>Node9</title>
<g id="a_node4"><a xlink:href="a00536.html#ga22c7f413d43fc0d511e122a3de389166" target="_top" xlink:title="Reads column information. ">
<polygon fill="white" stroke="black" points="141,-0.5 141,-19.5 252,-19.5 252,-0.5 141,-0.5"/>
<text text-anchor="middle" x="196.5" y="-7.5" font-family="Helvetica,sans-Serif" font-size="10.00">tds_process_colinfo</text>
</a>
</g>
</g>
<!-- Node6&#45;&gt;Node9 -->
<g id="edge3" class="edge"><title>Node6&#45;&gt;Node9</title>
<path fill="none" stroke="midnightblue" d="M90.9768,-35.96C112.352,-30.6512 137.113,-24.5012 157.169,-19.5201"/>
<polygon fill="midnightblue" stroke="midnightblue" points="89.9698,-32.6037 81.1084,-38.411 91.6572,-39.3973 89.9698,-32.6037"/>
</g>
</g>
</svg>
