<?xml version="1.0" encoding="UTF-8" standalone="no"?>
<!DOCTYPE svg PUBLIC "-//W3C//DTD SVG 1.1//EN"
 "http://www.w3.org/Graphics/SVG/1.1/DTD/svg11.dtd">
<!-- Generated by graphviz version 2.38.0 (20140413.2041)
 -->
<!-- Title: tds_skip_comment Pages: 1 -->
<svg width="620pt" height="28pt"
 viewBox="0.00 0.00 620.00 28.00" xmlns="http://www.w3.org/2000/svg" xmlns:xlink="http://www.w3.org/1999/xlink">
<g id="graph0" class="graph" transform="scale(1 1) rotate(0) translate(4 24)">
<title>tds_skip_comment</title>
<polygon fill="white" stroke="none" points="-4,4 -4,-24 616,-24 616,4 -4,4"/>
<!-- Node105 -->
<g id="node1" class="node"><title>Node105</title>
<polygon fill="#bfbfbf" stroke="black" points="0,-0.5 0,-19.5 104,-19.5 104,-0.5 0,-0.5"/>
<text text-anchor="middle" x="52" y="-7.5" font-family="Helvetica,sans-Serif" font-size="10.00">tds_skip_comment</text>
</g>
<!-- Node106 -->
<g id="node2" class="node"><title>Node106</title>
<g id="a_node2"><a xlink:href="a00533.html#ga6455b2991afbf7da90270787f2059d31" target="_top" xlink:title="Get position of next placeholder. ">
<polygon fill="white" stroke="black" points="140,-0.5 140,-19.5 259,-19.5 259,-0.5 140,-0.5"/>
<text text-anchor="middle" x="199.5" y="-7.5" font-family="Helvetica,sans-Serif" font-size="10.00">tds_next_placeholder</text>
</a>
</g>
</g>
<!-- Node105&#45;&gt;Node106 -->
<g id="edge1" class="edge"><title>Node105&#45;&gt;Node106</title>
<path fill="none" stroke="midnightblue" d="M114.468,-10C122.917,-10 131.574,-10 139.967,-10"/>
<polygon fill="midnightblue" stroke="midnightblue" points="114.298,-6.5001 104.298,-10 114.298,-13.5001 114.298,-6.5001"/>
</g>
<!-- Node107 -->
<g id="node3" class="node"><title>Node107</title>
<g id="a_node3"><a xlink:href="a00533.html#gaaa7b4d37bf796019e72f25c6e7fe7bea" target="_top" xlink:title="Count the number of placeholders in query. ">
<polygon fill="white" stroke="black" points="295,-0.5 295,-19.5 424,-19.5 424,-0.5 295,-0.5"/>
<text text-anchor="middle" x="359.5" y="-7.5" font-family="Helvetica,sans-Serif" font-size="10.00">tds_count_placeholders</text>
</a>
</g>
</g>
<!-- Node106&#45;&gt;Node107 -->
<g id="edge2" class="edge"><title>Node106&#45;&gt;Node107</title>
<path fill="none" stroke="midnightblue" d="M269.506,-10C277.929,-10 286.507,-10 294.847,-10"/>
<polygon fill="midnightblue" stroke="midnightblue" points="269.333,-6.5001 259.333,-10 269.333,-13.5001 269.333,-6.5001"/>
</g>
<!-- Node108 -->
<g id="node4" class="node"><title>Node108</title>
<g id="a_node4"><a xlink:href="a00533.html#ga02c6ce3ff96369603a6ee4efee64caae" target="_top" xlink:title="Emulate prepared execute traslating to a normal language. ">
<polygon fill="white" stroke="black" points="460,-0.5 460,-19.5 612,-19.5 612,-0.5 460,-0.5"/>
<text text-anchor="middle" x="536" y="-7.5" font-family="Helvetica,sans-Serif" font-size="10.00">tds_send_emulated_execute</text>
</a>
</g>
</g>
<!-- Node107&#45;&gt;Node108 -->
<g id="edge3" class="edge"><title>Node107&#45;&gt;Node108</title>
<path fill="none" stroke="midnightblue" d="M434.564,-10C442.91,-10 451.421,-10 459.782,-10"/>
<polygon fill="midnightblue" stroke="midnightblue" points="434.487,-6.5001 424.486,-10 434.486,-13.5001 434.487,-6.5001"/>
</g>
</g>
</svg>
