<?xml version="1.0" encoding="UTF-8" standalone="no"?>
<!DOCTYPE svg PUBLIC "-//W3C//DTD SVG 1.1//EN"
 "http://www.w3.org/Graphics/SVG/1.1/DTD/svg11.dtd">
<!-- Generated by graphviz version 2.38.0 (20140413.2041)
 -->
<!-- Title: tds_put_string Pages: 1 -->
<svg width="257pt" height="66pt"
 viewBox="0.00 0.00 257.00 66.00" xmlns="http://www.w3.org/2000/svg" xmlns:xlink="http://www.w3.org/1999/xlink">
<g id="graph0" class="graph" transform="scale(1 1) rotate(0) translate(4 62)">
<title>tds_put_string</title>
<polygon fill="white" stroke="none" points="-4,4 -4,-62 253,-62 253,4 -4,4"/>
<!-- Node62 -->
<g id="node1" class="node"><title>Node62</title>
<polygon fill="#bfbfbf" stroke="black" points="0,-19.5 0,-38.5 83,-38.5 83,-19.5 0,-19.5"/>
<text text-anchor="middle" x="41.5" y="-26.5" font-family="Helvetica,sans-Serif" font-size="10.00">tds_put_string</text>
</g>
<!-- Node63 -->
<g id="node2" class="node"><title>Node63</title>
<g id="a_node2"><a xlink:href="a00533.html#gaf614c75ea8f7ad411e53dac0e2f91be4" target="_top" xlink:title="Send RPC as string query. ">
<polygon fill="white" stroke="black" points="119,-38.5 119,-57.5 249,-57.5 249,-38.5 119,-38.5"/>
<text text-anchor="middle" x="184" y="-45.5" font-family="Helvetica,sans-Serif" font-size="10.00">tds_send_emulated_rpc</text>
</a>
</g>
</g>
<!-- Node62&#45;&gt;Node63 -->
<g id="edge1" class="edge"><title>Node62&#45;&gt;Node63</title>
<path fill="none" stroke="midnightblue" d="M93.1089,-35.8439C101.476,-36.9755 110.248,-38.1617 118.895,-39.331"/>
<polygon fill="midnightblue" stroke="midnightblue" points="93.5173,-32.3674 83.1384,-34.4956 92.5791,-39.3042 93.5173,-32.3674"/>
</g>
<!-- Node64 -->
<g id="node3" class="node"><title>Node64</title>
<g id="a_node3"><a xlink:href="a00533.html#ga26b26296d060dca75f6a43e9ac41e58d" target="_top" xlink:title="Send a string to server while quoting it. ">
<polygon fill="white" stroke="black" points="130.5,-0.5 130.5,-19.5 237.5,-19.5 237.5,-0.5 130.5,-0.5"/>
<text text-anchor="middle" x="184" y="-7.5" font-family="Helvetica,sans-Serif" font-size="10.00">tds_quote_and_put</text>
</a>
</g>
</g>
<!-- Node62&#45;&gt;Node64 -->
<g id="edge2" class="edge"><title>Node62&#45;&gt;Node64</title>
<path fill="none" stroke="midnightblue" d="M93.0889,-22.1588C105.215,-20.519 118.191,-18.7643 130.405,-17.1125"/>
<polygon fill="midnightblue" stroke="midnightblue" points="92.5791,-18.6958 83.1384,-23.5044 93.5173,-25.6326 92.5791,-18.6958"/>
</g>
</g>
</svg>
