<?xml version="1.0" encoding="UTF-8" standalone="no"?>
<!DOCTYPE svg PUBLIC "-//W3C//DTD SVG 1.1//EN"
 "http://www.w3.org/Graphics/SVG/1.1/DTD/svg11.dtd">
<!-- Generated by graphviz version 2.38.0 (20140413.2041)
 -->
<!-- Title: tds_read_packet Pages: 1 -->
<svg width="395pt" height="78pt"
 viewBox="0.00 0.00 395.00 77.50" xmlns="http://www.w3.org/2000/svg" xmlns:xlink="http://www.w3.org/1999/xlink">
<g id="graph0" class="graph" transform="scale(1 1) rotate(0) translate(4 73.5)">
<title>tds_read_packet</title>
<polygon fill="white" stroke="none" points="-4,4 -4,-73.5 391,-73.5 391,4 -4,4"/>
<!-- Node66 -->
<g id="node1" class="node"><title>Node66</title>
<polygon fill="#bfbfbf" stroke="black" points="0,-28 0,-47 96,-47 96,-28 0,-28"/>
<text text-anchor="middle" x="48" y="-35" font-family="Helvetica,sans-Serif" font-size="10.00">tds_read_packet</text>
</g>
<!-- Node67 -->
<g id="node2" class="node"><title>Node67</title>
<g id="a_node2"><a xlink:href="a00534.html#ga0cb72d3f6943795c39db1fa692be0a58" target="_top" xlink:title="Return a single byte from the input buffer. ">
<polygon fill="white" stroke="black" points="132,-28 132,-47 209,-47 209,-28 132,-28"/>
<text text-anchor="middle" x="170.5" y="-35" font-family="Helvetica,sans-Serif" font-size="10.00">tds_get_byte</text>
</a>
</g>
</g>
<!-- Node66&#45;&gt;Node67 -->
<g id="edge1" class="edge"><title>Node66&#45;&gt;Node67</title>
<path fill="none" stroke="midnightblue" d="M106.303,-37.5C114.909,-37.5 123.596,-37.5 131.659,-37.5"/>
<polygon fill="midnightblue" stroke="midnightblue" points="106.279,-34.0001 96.2789,-37.5 106.279,-41.0001 106.279,-34.0001"/>
</g>
<!-- Node68 -->
<g id="node3" class="node"><title>Node68</title>
<g id="a_node3"><a xlink:href="a00534.html#ga221e98a9c8be96ec6c8547891e1b53af" target="_top" xlink:title="Reads a byte from the TDS stream without removing it. ">
<polygon fill="white" stroke="black" points="286,-50 286,-69 346,-69 346,-50 286,-50"/>
<text text-anchor="middle" x="316" y="-57" font-family="Helvetica,sans-Serif" font-size="10.00">tds_peek</text>
</a>
</g>
</g>
<!-- Node67&#45;&gt;Node68 -->
<g id="edge2" class="edge"><title>Node67&#45;&gt;Node68</title>
<path fill="none" stroke="midnightblue" d="M219.342,-44.8347C241.298,-48.2007 266.625,-52.0836 285.701,-55.0082"/>
<polygon fill="midnightblue" stroke="midnightblue" points="219.618,-41.3361 209.203,-43.2802 218.557,-48.2553 219.618,-41.3361"/>
</g>
<!-- Node69 -->
<g id="node4" class="node"><title>Node69</title>
<g id="a_node4"><a xlink:href="a00536.html#ga9fdef8228d29cab7fa9098f07fa73fba" target="_top" xlink:title="Process parameters from networks. ">
<polygon fill="white" stroke="black" points="245,-0.5 245,-30.5 387,-30.5 387,-0.5 245,-0.5"/>
<text text-anchor="start" x="253" y="-18.5" font-family="Helvetica,sans-Serif" font-size="10.00">tds_process_param_result</text>
<text text-anchor="middle" x="316" y="-7.5" font-family="Helvetica,sans-Serif" font-size="10.00">_tokens</text>
</a>
</g>
</g>
<!-- Node67&#45;&gt;Node69 -->
<g id="edge3" class="edge"><title>Node67&#45;&gt;Node69</title>
<path fill="none" stroke="midnightblue" d="M219.293,-30.1729C227.487,-28.9167 236.152,-27.5882 244.787,-26.2644"/>
<polygon fill="midnightblue" stroke="midnightblue" points="218.557,-26.7447 209.203,-31.7198 219.618,-33.6639 218.557,-26.7447"/>
</g>
</g>
</svg>
