<?xml version="1.0" encoding="UTF-8" standalone="no"?>
<!DOCTYPE svg PUBLIC "-//W3C//DTD SVG 1.1//EN"
 "http://www.w3.org/Graphics/SVG/1.1/DTD/svg11.dtd">
<!-- Generated by graphviz version 2.38.0 (20140413.2041)
 -->
<!-- Title: tds_process_colinfo Pages: 1 -->
<svg width="378pt" height="104pt"
 viewBox="0.00 0.00 378.00 104.00" xmlns="http://www.w3.org/2000/svg" xmlns:xlink="http://www.w3.org/1999/xlink">
<g id="graph0" class="graph" transform="scale(1 1) rotate(0) translate(4 100)">
<title>tds_process_colinfo</title>
<polygon fill="white" stroke="none" points="-4,4 -4,-100 374,-100 374,4 -4,4"/>
<!-- Node53 -->
<g id="node1" class="node"><title>Node53</title>
<polygon fill="#bfbfbf" stroke="black" points="0,-38.5 0,-57.5 111,-57.5 111,-38.5 0,-38.5"/>
<text text-anchor="middle" x="55.5" y="-45.5" font-family="Helvetica,sans-Serif" font-size="10.00">tds_process_colinfo</text>
</g>
<!-- Node54 -->
<g id="node2" class="node"><title>Node54</title>
<g id="a_node2"><a xlink:href="a00534.html#gad38aa5b9547817854ccba1fcc7855861" target="_top" xlink:title="Get an int16 from the server. ">
<polygon fill="white" stroke="black" points="147,-76.5 147,-95.5 245,-95.5 245,-76.5 147,-76.5"/>
<text text-anchor="middle" x="196" y="-83.5" font-family="Helvetica,sans-Serif" font-size="10.00">tds_get_usmallint</text>
</a>
</g>
</g>
<!-- Node53&#45;&gt;Node54 -->
<g id="edge1" class="edge"><title>Node53&#45;&gt;Node54</title>
<path fill="none" stroke="midnightblue" d="M91.4494,-57.589C109.328,-62.4944 131.288,-68.5196 150.378,-73.7571"/>
<polygon fill="midnightblue" stroke="midnightblue" points="149.492,-77.1434 160.062,-76.4141 151.344,-70.3928 149.492,-77.1434"/>
</g>
<!-- Node55 -->
<g id="node3" class="node"><title>Node55</title>
<g id="a_node3"><a xlink:href="a00534.html#gae7d9c4e1a079e1d0aa0252732631e8c4" target="_top" xlink:title="Get N bytes from the buffer and return them in the already allocated space given to us...">
<polygon fill="white" stroke="black" points="293.5,-57.5 293.5,-76.5 357.5,-76.5 357.5,-57.5 293.5,-57.5"/>
<text text-anchor="middle" x="325.5" y="-64.5" font-family="Helvetica,sans-Serif" font-size="10.00">tds_get_n</text>
</a>
</g>
</g>
<!-- Node53&#45;&gt;Node55 -->
<g id="edge3" class="edge"><title>Node53&#45;&gt;Node55</title>
<path fill="none" stroke="midnightblue" d="M111.057,-51.8678C162.03,-55.4816 237.006,-60.797 283.187,-64.0711"/>
<polygon fill="midnightblue" stroke="midnightblue" points="283.208,-67.5813 293.43,-64.7973 283.703,-60.5988 283.208,-67.5813"/>
</g>
<!-- Node56 -->
<g id="node4" class="node"><title>Node56</title>
<g id="a_node4"><a xlink:href="a00535.html#gad96366d9fa93bfc283cef1299fbe97ab" target="_top" xlink:title="copy a string from another ">
<polygon fill="white" stroke="black" points="154.5,-0.5 154.5,-19.5 237.5,-19.5 237.5,-0.5 154.5,-0.5"/>
<text text-anchor="middle" x="196" y="-7.5" font-family="Helvetica,sans-Serif" font-size="10.00">tds_dstr_copy</text>
</a>
</g>
</g>
<!-- Node53&#45;&gt;Node56 -->
<g id="edge4" class="edge"><title>Node53&#45;&gt;Node56</title>
<path fill="none" stroke="midnightblue" d="M91.4494,-38.411C109.328,-33.5056 131.288,-27.4804 150.378,-22.2429"/>
<polygon fill="midnightblue" stroke="midnightblue" points="151.344,-25.6072 160.062,-19.5859 149.492,-18.8566 151.344,-25.6072"/>
</g>
<!-- Node54&#45;&gt;Node55 -->
<g id="edge2" class="edge"><title>Node54&#45;&gt;Node55</title>
<path fill="none" stroke="midnightblue" d="M245.202,-78.8169C257.638,-76.9638 270.914,-74.9854 282.977,-73.1878"/>
<polygon fill="midnightblue" stroke="midnightblue" points="283.838,-76.5981 293.213,-71.6624 282.806,-69.6746 283.838,-76.5981"/>
</g>
<!-- Node57 -->
<g id="node5" class="node"><title>Node57</title>
<g id="a_node5"><a xlink:href="a00535.html#ga656718f240d7403f986ae887d84a6ca1" target="_top" xlink:title="Set string to a given buffer of characters. ">
<polygon fill="white" stroke="black" points="281,-0.5 281,-19.5 370,-19.5 370,-0.5 281,-0.5"/>
<text text-anchor="middle" x="325.5" y="-7.5" font-family="Helvetica,sans-Serif" font-size="10.00">tds_dstr_copyn</text>
</a>
</g>
</g>
<!-- Node56&#45;&gt;Node57 -->
<g id="edge5" class="edge"><title>Node56&#45;&gt;Node57</title>
<path fill="none" stroke="midnightblue" d="M237.692,-10C248.075,-10 259.401,-10 270.342,-10"/>
<polygon fill="midnightblue" stroke="midnightblue" points="270.669,-13.5001 280.669,-10 270.669,-6.5001 270.669,-13.5001"/>
</g>
</g>
</svg>
