<?xml version="1.0" encoding="UTF-8" standalone="no"?>
<!DOCTYPE svg PUBLIC "-//W3C//DTD SVG 1.1//EN"
 "http://www.w3.org/Graphics/SVG/1.1/DTD/svg11.dtd">
<!-- Generated by graphviz version 2.38.0 (20140413.2041)
 -->
<!-- Title: tds_skip_quoted Pages: 1 -->
<svg width="610pt" height="28pt"
 viewBox="0.00 0.00 610.00 28.00" xmlns="http://www.w3.org/2000/svg" xmlns:xlink="http://www.w3.org/1999/xlink">
<g id="graph0" class="graph" transform="scale(1 1) rotate(0) translate(4 24)">
<title>tds_skip_quoted</title>
<polygon fill="white" stroke="none" points="-4,4 -4,-24 606,-24 606,4 -4,4"/>
<!-- Node114 -->
<g id="node1" class="node"><title>Node114</title>
<polygon fill="#bfbfbf" stroke="black" points="0,-0.5 0,-19.5 94,-19.5 94,-0.5 0,-0.5"/>
<text text-anchor="middle" x="47" y="-7.5" font-family="Helvetica,sans-Serif" font-size="10.00">tds_skip_quoted</text>
</g>
<!-- Node115 -->
<g id="node2" class="node"><title>Node115</title>
<g id="a_node2"><a xlink:href="a00533.html#ga6455b2991afbf7da90270787f2059d31" target="_top" xlink:title="Get position of next placeholder. ">
<polygon fill="white" stroke="black" points="130,-0.5 130,-19.5 249,-19.5 249,-0.5 130,-0.5"/>
<text text-anchor="middle" x="189.5" y="-7.5" font-family="Helvetica,sans-Serif" font-size="10.00">tds_next_placeholder</text>
</a>
</g>
</g>
<!-- Node114&#45;&gt;Node115 -->
<g id="edge1" class="edge"><title>Node114&#45;&gt;Node115</title>
<path fill="none" stroke="midnightblue" d="M104.14,-10C112.593,-10 121.33,-10 129.834,-10"/>
<polygon fill="midnightblue" stroke="midnightblue" points="104.005,-6.5001 94.005,-10 104.005,-13.5001 104.005,-6.5001"/>
</g>
<!-- Node116 -->
<g id="node3" class="node"><title>Node116</title>
<g id="a_node3"><a xlink:href="a00533.html#gaaa7b4d37bf796019e72f25c6e7fe7bea" target="_top" xlink:title="Count the number of placeholders in query. ">
<polygon fill="white" stroke="black" points="285,-0.5 285,-19.5 414,-19.5 414,-0.5 285,-0.5"/>
<text text-anchor="middle" x="349.5" y="-7.5" font-family="Helvetica,sans-Serif" font-size="10.00">tds_count_placeholders</text>
</a>
</g>
</g>
<!-- Node115&#45;&gt;Node116 -->
<g id="edge2" class="edge"><title>Node115&#45;&gt;Node116</title>
<path fill="none" stroke="midnightblue" d="M259.506,-10C267.929,-10 276.507,-10 284.847,-10"/>
<polygon fill="midnightblue" stroke="midnightblue" points="259.333,-6.5001 249.333,-10 259.333,-13.5001 259.333,-6.5001"/>
</g>
<!-- Node117 -->
<g id="node4" class="node"><title>Node117</title>
<g id="a_node4"><a xlink:href="a00533.html#ga02c6ce3ff96369603a6ee4efee64caae" target="_top" xlink:title="Emulate prepared execute traslating to a normal language. ">
<polygon fill="white" stroke="black" points="450,-0.5 450,-19.5 602,-19.5 602,-0.5 450,-0.5"/>
<text text-anchor="middle" x="526" y="-7.5" font-family="Helvetica,sans-Serif" font-size="10.00">tds_send_emulated_execute</text>
</a>
</g>
</g>
<!-- Node116&#45;&gt;Node117 -->
<g id="edge3" class="edge"><title>Node116&#45;&gt;Node117</title>
<path fill="none" stroke="midnightblue" d="M424.564,-10C432.91,-10 441.421,-10 449.782,-10"/>
<polygon fill="midnightblue" stroke="midnightblue" points="424.487,-6.5001 414.486,-10 424.486,-13.5001 424.487,-6.5001"/>
</g>
</g>
</svg>
