<?xml version="1.0" encoding="UTF-8" standalone="no"?>
<!DOCTYPE svg PUBLIC "-//W3C//DTD SVG 1.1//EN"
 "http://www.w3.org/Graphics/SVG/1.1/DTD/svg11.dtd">
<!-- Generated by graphviz version 2.38.0 (20140413.2041)
 -->
<!-- Title: tds_process_compute_names Pages: 1 -->
<svg width="362pt" height="66pt"
 viewBox="0.00 0.00 362.00 66.00" xmlns="http://www.w3.org/2000/svg" xmlns:xlink="http://www.w3.org/1999/xlink">
<g id="graph0" class="graph" transform="scale(1 1) rotate(0) translate(4 62)">
<title>tds_process_compute_names</title>
<polygon fill="white" stroke="none" points="-4,4 -4,-62 358,-62 358,4 -4,4"/>
<!-- Node61 -->
<g id="node1" class="node"><title>Node61</title>
<polygon fill="#bfbfbf" stroke="black" points="0,-14 0,-44 120,-44 120,-14 0,-14"/>
<text text-anchor="start" x="8" y="-32" font-family="Helvetica,sans-Serif" font-size="10.00">tds_process_compute</text>
<text text-anchor="middle" x="60" y="-21" font-family="Helvetica,sans-Serif" font-size="10.00">_names</text>
</g>
<!-- Node62 -->
<g id="node2" class="node"><title>Node62</title>
<g id="a_node2"><a xlink:href="a00534.html#gad38aa5b9547817854ccba1fcc7855861" target="_top" xlink:title="Get an int16 from the server. ">
<polygon fill="white" stroke="black" points="156,-38.5 156,-57.5 254,-57.5 254,-38.5 156,-38.5"/>
<text text-anchor="middle" x="205" y="-45.5" font-family="Helvetica,sans-Serif" font-size="10.00">tds_get_usmallint</text>
</a>
</g>
</g>
<!-- Node61&#45;&gt;Node62 -->
<g id="edge1" class="edge"><title>Node61&#45;&gt;Node62</title>
<path fill="none" stroke="midnightblue" d="M120.403,-36.8926C128.804,-38.0089 137.435,-39.1557 145.813,-40.2689"/>
<polygon fill="midnightblue" stroke="midnightblue" points="145.501,-43.7581 155.875,-41.6057 146.423,-36.8191 145.501,-43.7581"/>
</g>
<!-- Node64 -->
<g id="node4" class="node"><title>Node64</title>
<g id="a_node4"><a xlink:href="a00434.html#ab45c291105027e69836002e1dd586141" target="_top" xlink:title="Write a message to the debug log. ">
<polygon fill="white" stroke="black" points="166.5,-0.5 166.5,-19.5 243.5,-19.5 243.5,-0.5 166.5,-0.5"/>
<text text-anchor="middle" x="205" y="-7.5" font-family="Helvetica,sans-Serif" font-size="10.00">tdsdump_log</text>
</a>
</g>
</g>
<!-- Node61&#45;&gt;Node64 -->
<g id="edge3" class="edge"><title>Node61&#45;&gt;Node64</title>
<path fill="none" stroke="midnightblue" d="M120.403,-21.1074C132.27,-19.5305 144.596,-17.8928 156.02,-16.3749"/>
<polygon fill="midnightblue" stroke="midnightblue" points="156.768,-19.8065 166.219,-15.0198 155.846,-12.8675 156.768,-19.8065"/>
</g>
<!-- Node63 -->
<g id="node3" class="node"><title>Node63</title>
<g id="a_node3"><a xlink:href="a00534.html#gae7d9c4e1a079e1d0aa0252732631e8c4" target="_top" xlink:title="Get N bytes from the buffer and return them in the already allocated space given to us...">
<polygon fill="white" stroke="black" points="290,-38.5 290,-57.5 354,-57.5 354,-38.5 290,-38.5"/>
<text text-anchor="middle" x="322" y="-45.5" font-family="Helvetica,sans-Serif" font-size="10.00">tds_get_n</text>
</a>
</g>
</g>
<!-- Node62&#45;&gt;Node63 -->
<g id="edge2" class="edge"><title>Node62&#45;&gt;Node63</title>
<path fill="none" stroke="midnightblue" d="M254.104,-48C262.586,-48 271.349,-48 279.626,-48"/>
<polygon fill="midnightblue" stroke="midnightblue" points="279.794,-51.5001 289.794,-48 279.794,-44.5001 279.794,-51.5001"/>
</g>
</g>
</svg>
