<?xml version="1.0" encoding="UTF-8" standalone="no"?>
<!DOCTYPE svg PUBLIC "-//W3C//DTD SVG 1.1//EN"
 "http://www.w3.org/Graphics/SVG/1.1/DTD/svg11.dtd">
<!-- Generated by graphviz version 2.38.0 (20140413.2041)
 -->
<!-- Title: parse_numeric Pages: 1 -->
<svg width="327pt" height="85pt"
 viewBox="0.00 0.00 327.00 85.00" xmlns="http://www.w3.org/2000/svg" xmlns:xlink="http://www.w3.org/1999/xlink">
<g id="graph0" class="graph" transform="scale(1 1) rotate(0) translate(4 81)">
<title>parse_numeric</title>
<polygon fill="white" stroke="none" points="-4,4 -4,-81 323,-81 323,4 -4,4"/>
<!-- Node6 -->
<g id="node1" class="node"><title>Node6</title>
<polygon fill="#bfbfbf" stroke="black" points="0,-38.5 0,-57.5 86,-57.5 86,-38.5 0,-38.5"/>
<text text-anchor="middle" x="43" y="-45.5" font-family="Helvetica,sans-Serif" font-size="10.00">parse_numeric</text>
</g>
<!-- Node7 -->
<g id="node2" class="node"><title>Node7</title>
<g id="a_node2"><a xlink:href="a00530.html#ga0176fafd412b5b8005bf1202fbc13b00" target="_top" xlink:title="convert a number in string to TDS_INT ">
<polygon fill="white" stroke="black" points="122,-57.5 122,-76.5 197,-76.5 197,-57.5 122,-57.5"/>
<text text-anchor="middle" x="159.5" y="-64.5" font-family="Helvetica,sans-Serif" font-size="10.00">string_to_int</text>
</a>
</g>
</g>
<!-- Node6&#45;&gt;Node7 -->
<g id="edge1" class="edge"><title>Node6&#45;&gt;Node7</title>
<path fill="none" stroke="midnightblue" d="M96.255,-56.6711C104.825,-58.0932 113.545,-59.5403 121.64,-60.8835"/>
<polygon fill="midnightblue" stroke="midnightblue" points="96.7483,-53.2052 86.3103,-55.0209 95.6024,-60.1108 96.7483,-53.2052"/>
</g>
<!-- Node8 -->
<g id="node3" class="node"><title>Node8</title>
<g id="a_node3"><a xlink:href="a00530.html#gace939c1fa676d172cb0cae94848b7fac" target="_top" xlink:title="convert a number in string to TDS_INT8 ">
<polygon fill="white" stroke="black" points="126,-19.5 126,-38.5 193,-38.5 193,-19.5 126,-19.5"/>
<text text-anchor="middle" x="159.5" y="-26.5" font-family="Helvetica,sans-Serif" font-size="10.00">parse_int8</text>
</a>
</g>
</g>
<!-- Node6&#45;&gt;Node8 -->
<g id="edge2" class="edge"><title>Node6&#45;&gt;Node8</title>
<path fill="none" stroke="midnightblue" d="M96.2181,-39.335C106.241,-37.6718 116.471,-35.9742 125.667,-34.4482"/>
<polygon fill="midnightblue" stroke="midnightblue" points="95.6024,-35.8892 86.3103,-40.9791 96.7483,-42.7948 95.6024,-35.8892"/>
</g>
<!-- Node9 -->
<g id="node4" class="node"><title>Node9</title>
<g id="a_node4"><a xlink:href="a00530.html#ga933f87cca76156648e91f472650b98f3" target="_top" xlink:title="convert a number in string to TDS_INT8 ">
<polygon fill="white" stroke="black" points="235.5,-38.5 235.5,-57.5 316.5,-57.5 316.5,-38.5 235.5,-38.5"/>
<text text-anchor="middle" x="276" y="-45.5" font-family="Helvetica,sans-Serif" font-size="10.00">string_to_int8</text>
</a>
</g>
</g>
<!-- Node8&#45;&gt;Node9 -->
<g id="edge3" class="edge"><title>Node8&#45;&gt;Node9</title>
<path fill="none" stroke="midnightblue" d="M202.943,-36.043C213.599,-37.8112 224.99,-39.7013 235.495,-41.4447"/>
<polygon fill="midnightblue" stroke="midnightblue" points="203.443,-32.5781 193.005,-34.3938 202.297,-39.4837 203.443,-32.5781"/>
</g>
<!-- Node10 -->
<g id="node5" class="node"><title>Node10</title>
<g id="a_node5"><a xlink:href="a00530.html#gae8e173a9f8d2e3f152ada9f48d3d5f28" target="_top" xlink:title="convert a number in string to TDS_UINT8 ">
<polygon fill="white" stroke="black" points="233,-0.5 233,-19.5 319,-19.5 319,-0.5 233,-0.5"/>
<text text-anchor="middle" x="276" y="-7.5" font-family="Helvetica,sans-Serif" font-size="10.00">string_to_uint8</text>
</a>
</g>
</g>
<!-- Node8&#45;&gt;Node10 -->
<g id="edge4" class="edge"><title>Node8&#45;&gt;Node10</title>
<path fill="none" stroke="midnightblue" d="M202.95,-21.9559C212.76,-20.328 223.193,-18.5969 232.984,-16.9721"/>
<polygon fill="midnightblue" stroke="midnightblue" points="202.297,-18.5163 193.005,-23.6062 203.443,-25.4219 202.297,-18.5163"/>
</g>
</g>
</svg>
