<?xml version="1.0" encoding="UTF-8" standalone="no"?>
<!DOCTYPE svg PUBLIC "-//W3C//DTD SVG 1.1//EN"
 "http://www.w3.org/Graphics/SVG/1.1/DTD/svg11.dtd">
<!-- Generated by graphviz version 2.38.0 (20140413.2041)
 -->
<!-- Title: tds_process_cursor_tokens Pages: 1 -->
<svg width="352pt" height="39pt"
 viewBox="0.00 0.00 352.00 39.00" xmlns="http://www.w3.org/2000/svg" xmlns:xlink="http://www.w3.org/1999/xlink">
<g id="graph0" class="graph" transform="scale(1 1) rotate(0) translate(4 35)">
<title>tds_process_cursor_tokens</title>
<polygon fill="white" stroke="none" points="-4,4 -4,-35 348,-35 348,4 -4,4"/>
<!-- Node68 -->
<g id="node1" class="node"><title>Node68</title>
<polygon fill="#bfbfbf" stroke="black" points="0,-0.5 0,-30.5 110,-30.5 110,-0.5 0,-0.5"/>
<text text-anchor="start" x="8" y="-18.5" font-family="Helvetica,sans-Serif" font-size="10.00">tds_process_cursor</text>
<text text-anchor="middle" x="55" y="-7.5" font-family="Helvetica,sans-Serif" font-size="10.00">_tokens</text>
</g>
<!-- Node69 -->
<g id="node2" class="node"><title>Node69</title>
<g id="a_node2"><a xlink:href="a00534.html#gad38aa5b9547817854ccba1fcc7855861" target="_top" xlink:title="Get an int16 from the server. ">
<polygon fill="white" stroke="black" points="146,-6 146,-25 244,-25 244,-6 146,-6"/>
<text text-anchor="middle" x="195" y="-13" font-family="Helvetica,sans-Serif" font-size="10.00">tds_get_usmallint</text>
</a>
</g>
</g>
<!-- Node68&#45;&gt;Node69 -->
<g id="edge1" class="edge"><title>Node68&#45;&gt;Node69</title>
<path fill="none" stroke="midnightblue" d="M110.145,-15.5C118.52,-15.5 127.201,-15.5 135.663,-15.5"/>
<polygon fill="midnightblue" stroke="midnightblue" points="135.84,-19.0001 145.84,-15.5 135.84,-12.0001 135.84,-19.0001"/>
</g>
<!-- Node70 -->
<g id="node3" class="node"><title>Node70</title>
<g id="a_node3"><a xlink:href="a00534.html#gae7d9c4e1a079e1d0aa0252732631e8c4" target="_top" xlink:title="Get N bytes from the buffer and return them in the already allocated space given to us...">
<polygon fill="white" stroke="black" points="280,-6 280,-25 344,-25 344,-6 280,-6"/>
<text text-anchor="middle" x="312" y="-13" font-family="Helvetica,sans-Serif" font-size="10.00">tds_get_n</text>
</a>
</g>
</g>
<!-- Node69&#45;&gt;Node70 -->
<g id="edge2" class="edge"><title>Node69&#45;&gt;Node70</title>
<path fill="none" stroke="midnightblue" d="M244.104,-15.5C252.586,-15.5 261.349,-15.5 269.626,-15.5"/>
<polygon fill="midnightblue" stroke="midnightblue" points="269.794,-19.0001 279.794,-15.5 269.794,-12.0001 269.794,-19.0001"/>
</g>
</g>
</svg>
