<?xml version="1.0" encoding="UTF-8" standalone="no"?>
<!DOCTYPE svg PUBLIC "-//W3C//DTD SVG 1.1//EN"
 "http://www.w3.org/Graphics/SVG/1.1/DTD/svg11.dtd">
<!-- Generated by graphviz version 2.38.0 (20140413.2041)
 -->
<!-- Title: tds_dstr_copyn Pages: 1 -->
<svg width="407pt" height="104pt"
 viewBox="0.00 0.00 407.00 104.00" xmlns="http://www.w3.org/2000/svg" xmlns:xlink="http://www.w3.org/1999/xlink">
<g id="graph0" class="graph" transform="scale(1 1) rotate(0) translate(4 100)">
<title>tds_dstr_copyn</title>
<polygon fill="white" stroke="none" points="-4,4 -4,-100 403,-100 403,4 -4,4"/>
<!-- Node11 -->
<g id="node1" class="node"><title>Node11</title>
<polygon fill="#bfbfbf" stroke="black" points="0,-38.5 0,-57.5 89,-57.5 89,-38.5 0,-38.5"/>
<text text-anchor="middle" x="44.5" y="-45.5" font-family="Helvetica,sans-Serif" font-size="10.00">tds_dstr_copyn</text>
</g>
<!-- Node12 -->
<g id="node2" class="node"><title>Node12</title>
<g id="a_node2"><a xlink:href="a00529.html#gaa9670914093b354e7a123b10ba877813" target="_top" xlink:title="Check the server name to find port info first Warning: connection&#45;&gt; &amp; login&#45;&gt; are all modified when n...">
<polygon fill="white" stroke="black" points="244,-76.5 244,-95.5 399,-95.5 399,-76.5 244,-76.5"/>
<text text-anchor="middle" x="321.5" y="-83.5" font-family="Helvetica,sans-Serif" font-size="10.00">parse_server_name_for_port</text>
</a>
</g>
</g>
<!-- Node11&#45;&gt;Node12 -->
<g id="edge1" class="edge"><title>Node11&#45;&gt;Node12</title>
<path fill="none" stroke="midnightblue" d="M90.8411,-59.9745C101.953,-62.5932 113.855,-65.1358 125,-67 163.847,-73.498 207.436,-78.0001 243.58,-80.9846"/>
<polygon fill="midnightblue" stroke="midnightblue" points="91.4469,-56.52 80.9038,-57.5654 89.7977,-63.323 91.4469,-56.52"/>
</g>
<!-- Node13 -->
<g id="node3" class="node"><title>Node13</title>
<g id="a_node3"><a xlink:href="a00535.html#gad96366d9fa93bfc283cef1299fbe97ab" target="_top" xlink:title="copy a string from another ">
<polygon fill="white" stroke="black" points="125,-38.5 125,-57.5 208,-57.5 208,-38.5 125,-38.5"/>
<text text-anchor="middle" x="166.5" y="-45.5" font-family="Helvetica,sans-Serif" font-size="10.00">tds_dstr_copy</text>
</a>
</g>
</g>
<!-- Node11&#45;&gt;Node13 -->
<g id="edge2" class="edge"><title>Node11&#45;&gt;Node13</title>
<path fill="none" stroke="midnightblue" d="M99.1687,-48C107.799,-48 116.606,-48 124.864,-48"/>
<polygon fill="midnightblue" stroke="midnightblue" points="99.1622,-44.5001 89.1622,-48 99.1622,-51.5001 99.1622,-44.5001"/>
</g>
<!-- Node16 -->
<g id="node6" class="node"><title>Node16</title>
<g id="a_node6"><a xlink:href="a00535.html#ga4e6d9fa6f9b9551a5a3390e10a5322e6" target="_top" xlink:title="Duplicate a string from another dynamic string. ">
<polygon fill="white" stroke="black" points="127.5,-0.5 127.5,-19.5 205.5,-19.5 205.5,-0.5 127.5,-0.5"/>
<text text-anchor="middle" x="166.5" y="-7.5" font-family="Helvetica,sans-Serif" font-size="10.00">tds_dstr_dup</text>
</a>
</g>
</g>
<!-- Node11&#45;&gt;Node16 -->
<g id="edge6" class="edge"><title>Node11&#45;&gt;Node16</title>
<path fill="none" stroke="midnightblue" d="M85.5435,-35.3196C101.757,-30.1852 120.166,-24.3559 135.229,-19.5859"/>
<polygon fill="midnightblue" stroke="midnightblue" points="84.2578,-32.0553 75.7811,-38.411 86.3711,-38.7287 84.2578,-32.0553"/>
</g>
<!-- Node13&#45;&gt;Node12 -->
<g id="edge3" class="edge"><title>Node13&#45;&gt;Node12</title>
<path fill="none" stroke="midnightblue" d="M215.977,-60.04C237.352,-65.3488 262.113,-71.4988 282.169,-76.4799"/>
<polygon fill="midnightblue" stroke="midnightblue" points="216.657,-56.6027 206.108,-57.589 214.97,-63.3963 216.657,-56.6027"/>
</g>
<!-- Node14 -->
<g id="node4" class="node"><title>Node14</title>
<g id="a_node4"><a xlink:href="a00535.html#gab78cc59b110df2817b00f9bed74c6ff1" target="_top" xlink:title="set a string from another buffer. ">
<polygon fill="white" stroke="black" points="284,-38.5 284,-57.5 359,-57.5 359,-38.5 284,-38.5"/>
<text text-anchor="middle" x="321.5" y="-45.5" font-family="Helvetica,sans-Serif" font-size="10.00">tds_dstr_set</text>
</a>
</g>
</g>
<!-- Node13&#45;&gt;Node14 -->
<g id="edge4" class="edge"><title>Node13&#45;&gt;Node14</title>
<path fill="none" stroke="midnightblue" d="M218.348,-48C239.792,-48 264.278,-48 283.9,-48"/>
<polygon fill="midnightblue" stroke="midnightblue" points="218.1,-44.5001 208.1,-48 218.099,-51.5001 218.1,-44.5001"/>
</g>
<!-- Node15 -->
<g id="node5" class="node"><title>Node15</title>
<g id="a_node5"><a xlink:href="a00536.html#ga22c7f413d43fc0d511e122a3de389166" target="_top" xlink:title="Reads column information. ">
<polygon fill="white" stroke="black" points="266,-0.5 266,-19.5 377,-19.5 377,-0.5 266,-0.5"/>
<text text-anchor="middle" x="321.5" y="-7.5" font-family="Helvetica,sans-Serif" font-size="10.00">tds_process_colinfo</text>
</a>
</g>
</g>
<!-- Node13&#45;&gt;Node15 -->
<g id="edge5" class="edge"><title>Node13&#45;&gt;Node15</title>
<path fill="none" stroke="midnightblue" d="M215.977,-35.96C237.352,-30.6512 262.113,-24.5012 282.169,-19.5201"/>
<polygon fill="midnightblue" stroke="midnightblue" points="214.97,-32.6037 206.108,-38.411 216.657,-39.3973 214.97,-32.6037"/>
</g>
</g>
</svg>
