<?xml version="1.0" encoding="UTF-8" standalone="no"?>
<!DOCTYPE svg PUBLIC "-//W3C//DTD SVG 1.1//EN"
 "http://www.w3.org/Graphics/SVG/1.1/DTD/svg11.dtd">
<!-- Generated by graphviz version 2.38.0 (20140413.2041)
 -->
<!-- Title: tds_datain_stream_init Pages: 1 -->
<svg width="400pt" height="28pt"
 viewBox="0.00 0.00 400.00 28.00" xmlns="http://www.w3.org/2000/svg" xmlns:xlink="http://www.w3.org/1999/xlink">
<g id="graph0" class="graph" transform="scale(1 1) rotate(0) translate(4 24)">
<title>tds_datain_stream_init</title>
<polygon fill="white" stroke="none" points="-4,4 -4,-24 396,-24 396,4 -4,4"/>
<!-- Node5 -->
<g id="node1" class="node"><title>Node5</title>
<polygon fill="#bfbfbf" stroke="black" points="0,-0.5 0,-19.5 124,-19.5 124,-0.5 0,-0.5"/>
<text text-anchor="middle" x="62" y="-7.5" font-family="Helvetica,sans-Serif" font-size="10.00">tds_datain_stream_init</text>
</g>
<!-- Node6 -->
<g id="node2" class="node"><title>Node6</title>
<g id="a_node2"><a xlink:href="a01330.html#a04b537d889f7d4c9b9701eb81baf7efd" target="_top" xlink:title="Reads data from network for input stream. ">
<polygon fill="white" stroke="black" points="160,-0.5 160,-19.5 292,-19.5 292,-0.5 160,-0.5"/>
<text text-anchor="middle" x="226" y="-7.5" font-family="Helvetica,sans-Serif" font-size="10.00">tds_datain_stream_read</text>
</a>
</g>
</g>
<!-- Node5&#45;&gt;Node6 -->
<g id="edge1" class="edge"><title>Node5&#45;&gt;Node6</title>
<path fill="none" stroke="midnightblue" d="M124.245,-10C132.617,-10 141.289,-10 149.873,-10"/>
<polygon fill="midnightblue" stroke="midnightblue" points="149.885,-13.5001 159.885,-10 149.885,-6.5001 149.885,-13.5001"/>
</g>
<!-- Node7 -->
<g id="node3" class="node"><title>Node7</title>
<g id="a_node3"><a xlink:href="a00534.html#gae7d9c4e1a079e1d0aa0252732631e8c4" target="_top" xlink:title="Get N bytes from the buffer and return them in the already allocated space given to us...">
<polygon fill="white" stroke="black" points="328,-0.5 328,-19.5 392,-19.5 392,-0.5 328,-0.5"/>
<text text-anchor="middle" x="360" y="-7.5" font-family="Helvetica,sans-Serif" font-size="10.00">tds_get_n</text>
</a>
</g>
</g>
<!-- Node6&#45;&gt;Node7 -->
<g id="edge2" class="edge"><title>Node6&#45;&gt;Node7</title>
<path fill="none" stroke="midnightblue" d="M292.227,-10C300.995,-10 309.782,-10 317.968,-10"/>
<polygon fill="midnightblue" stroke="midnightblue" points="317.968,-13.5001 327.968,-10 317.968,-6.5001 317.968,-13.5001"/>
</g>
</g>
</svg>
